<svg version="1.1" xmlns="http://www.w3.org/2000/svg" xmlns:xlink="http://www.w3.org/1999/xlink" width="512px" height="512px" viewBox="0,0,256,256"><g fill="none" fill-rule="nonzero" stroke="none" stroke-width="1" stroke-linecap="butt" stroke-linejoin="miter" stroke-miterlimit="10" stroke-dasharray="" stroke-dashoffset="0" font-family="none" font-weight="none" font-size="none" text-anchor="none" style="mix-blend-mode: normal"><g transform="translate(-0.00025,-0.00014) scale(0.5,0.5)"><g id="_x30_7_Warehouse"><g><g><g><g fill="#ffffff"><rect x="104.965" y="174.191" width="357.286" height="311.406"></rect></g><g fill="#353535"><g><path d="M486.34,154.847v330.741h-24.094v-311.385h-357.287v311.385h-24.095v-330.741l202.718,-84.132z"></path></g></g><g fill="#474747"><g><path d="M486.34,154.847v13.091l-202.758,-84.131l-202.718,84.131v-13.091l202.718,-84.132z"></path></g></g><g fill="#333333"><g><rect x="80.864" y="469.685" width="24.095" height="15.903"></rect></g><g><rect x="462.246" y="469.685" width="24.095" height="15.903"></rect></g></g><g fill="#2f5874"><g><path d="M506.907,116.903v46.476l-223.319,-92.679l-223.279,92.679v-46.476l215.047,-88.462c5.14,-2.691 11.285,-2.691 16.464,0z"></path></g></g><g fill="#284b63"><g><path d="M506.901,149.444v13.935l-223.319,-92.685l-223.279,92.685v-13.935l223.279,-92.645z"></path></g></g><g fill="#356482"><g><path d="M506.901,116.897v13.895l-215.087,-88.468c-5.18,-2.691 -11.324,-2.691 -16.465,0l-215.047,88.468v-13.895l215.047,-88.468c5.14,-2.691 11.285,-2.691 16.465,0z"></path></g></g></g><g><g><g fill="#4d9093"><rect x="204.244" y="367.172" width="118.418" height="118.418"></rect></g><g fill="#468286"><path d="M322.662,367.152v118.438h-118.439v-25.411h40.422c29.04,0 52.605,-23.503 52.605,-52.605v-40.423l25.412,0.001z"></path></g><g fill="#4d9093"><rect x="322.662" y="367.172" width="118.418" height="118.418"></rect></g><g fill="#468286"><path d="M441.08,367.152v118.438h-118.438v-25.411h40.422c29.04,0 52.605,-23.503 52.605,-52.605v-40.423l25.411,0.001z"></path></g></g><g fill="#4d9093"><rect x="263.453" y="248.754" width="118.418" height="118.418"></rect></g><g fill="#468286"><path d="M381.899,248.723v118.439h-118.438v-25.411h40.422c29.04,0 52.605,-23.504 52.605,-52.605v-40.423h25.411z"></path></g><g fill="#2f5874"><g><rect x="249.07" y="367.172" width="28.765" height="36.105"></rect></g><g><rect x="308.279" y="248.754" width="28.765" height="36.105"></rect></g><g><rect x="367.488" y="367.172" width="28.765" height="36.105"></rect></g></g><g fill="#284b63"><g><path d="M277.857,367.162v36.116h-28.794v-10.952h6.892c6.029,0 10.95,-4.861 10.95,-10.952v-14.212z"></path></g><g><path d="M337.046,248.723v36.116h-28.794v-10.89h6.89c6.091,0 10.952,-4.922 10.952,-10.952v-14.274z"></path></g><g><path d="M396.234,367.162v36.116h-28.732v-10.952h6.892c6.03,0 10.95,-4.861 10.95,-10.952v-14.212z"></path></g></g></g><g><g><g fill="#468286"><rect x="3.013" y="398.104" width="87.486" height="87.486"></rect></g><g fill="#3c6e71"><path d="M90.499,398.089v87.501h-87.501v-18.773h29.863c21.455,0 38.864,-17.364 38.864,-38.864v-29.864l18.774,0z"></path></g><g fill="#468286"><rect x="90.499" y="398.104" width="87.486" height="87.486"></rect></g><g fill="#3c6e71"><path d="M177.985,398.089v87.501h-87.501v-18.773h29.863c21.455,0 38.864,-17.364 38.864,-38.864v-29.864l18.774,0z"></path></g></g><g fill="#468286"><rect x="46.756" y="310.618" width="87.486" height="87.486"></rect></g><g fill="#3c6e71"><path d="M134.263,310.596v87.501h-87.501v-18.773h29.863c21.455,0 38.864,-17.364 38.864,-38.864v-29.864h18.774z"></path></g><g fill="#2f5874"><g><rect x="36.131" y="398.104" width="21.251" height="26.674"></rect></g><g><rect x="79.874" y="310.618" width="21.251" height="26.674"></rect></g><g><rect x="123.617" y="398.104" width="21.251" height="26.674"></rect></g></g><g fill="#284b63"><g><path d="M57.398,398.097v26.682h-21.273v-8.091h5.092c4.454,0 8.09,-3.591 8.09,-8.091v-10.5z"></path></g><g><path d="M101.126,310.596v26.682h-21.273v-8.046h5.09c4.5,0 8.091,-3.637 8.091,-8.091v-10.545z"></path></g><g><path d="M144.854,398.097v26.682h-21.227v-8.091h5.092c4.454,0 8.09,-3.591 8.09,-8.091v-10.5z"></path></g></g></g></g><path d="M508.989,482.577h-19.636v-323.224l16.4,6.807c0.921,0.392 1.988,0.282 2.823,-0.274c0.839,-0.561 1.341,-1.499 1.341,-2.506v-46.476c0,-1.22 -0.737,-2.321 -1.867,-2.784l-214.842,-88.352c-6.047,-3.142 -13.248,-3.142 -19,-0.11l-215.046,88.462c-1.129,0.463 -1.867,1.564 -1.867,2.784v46.476c0,1.008 0.502,1.945 1.341,2.506c0.502,0.333 1.083,0.506 1.67,0.506c0.393,0 0.784,-0.075 1.153,-0.231l16.389,-6.803v148.25h-31.095c-1.663,0 -3.012,1.349 -3.012,3.012v84.474h-40.729c-1.663,0 -3.012,1.349 -3.012,3.012v87.485c0,1.663 1.349,3.012 3.012,3.012h505.977c1.663,0 3.012,-1.349 3.012,-3.012c0,-1.663 -1.349,-3.014 -3.012,-3.014zM63.32,158.869v-39.95l213.431,-87.811c4.271,-2.224 9.384,-2.228 13.926,0.118l213.218,87.696v39.946l-219.151,-90.951c-0.369,-0.153 -0.761,-0.231 -1.153,-0.231c-0.392,0 -0.784,0.078 -1.153,0.231zM82.886,313.631h15.228v20.647h-15.228zM39.144,401.116h7.612h7.616v20.651h-15.228zM87.486,482.577h-81.462v-81.461h27.095v23.663c0,1.663 1.349,3.012 3.012,3.012h21.251c1.663,0 3.012,-1.349 3.012,-3.012v-23.663h27.091v81.461zM49.767,395.092v-81.462h27.095v23.66c0,1.662 1.349,3.012 3.012,3.012h21.252c1.662,0 3.012,-1.35 3.012,-3.012v-23.66h27.091v81.462h-40.73zM134.24,401.116h7.616v20.651h-15.228v-20.651zM174.975,482.577h-81.465v-81.461h27.095v23.663c0,1.663 1.349,3.012 3.012,3.012h21.252c1.663,0 3.012,-1.349 3.012,-3.012v-23.663h27.095l-0.001,81.461zM249.071,406.289h28.766c1.663,0 3.012,-1.35 3.012,-3.012v-33.092h38.801v112.392h-112.396v-112.392h38.805v33.092c0.001,1.662 1.349,3.012 3.012,3.012zM308.277,287.869h28.766c1.663,0 3.012,-1.349 3.012,-3.012v-33.091h38.805v112.396h-56.197h-56.198v-112.396h38.801v33.091c-0.001,1.663 1.348,3.012 3.011,3.012zM311.289,281.845v-30.079h22.742v30.079zM438.069,482.577h-112.396v-112.392h38.801v33.092c0,1.662 1.35,3.012 3.012,3.012h28.766c1.663,0 3.012,-1.35 3.012,-3.012v-33.092h38.805zM393.24,400.265h-22.742v-30.08h11.373h11.369v30.08zM274.825,370.185v30.08h-22.742v-30.08h11.369zM459.234,482.577h-15.142v-115.404c0,-1.663 -1.349,-3.012 -3.012,-3.012h-56.198v-115.406c0,-1.663 -1.349,-3.012 -3.012,-3.012h-118.418c-1.663,0 -3.012,1.349 -3.012,3.012v115.407h-56.198c-1.662,0 -3.012,1.349 -3.012,3.012v115.403h-20.231v-84.473c0,-1.663 -1.35,-3.012 -3.012,-3.012h-40.735v-84.474c0,-1.663 -1.349,-3.012 -3.012,-3.012h-26.271v-130.392h351.266l-0.001,305.363zM483.33,482.577h-18.071v-308.374c0,-1.663 -1.349,-3.012 -3.012,-3.012h-357.29c-1.663,0 -3.012,1.349 -3.012,3.012v133.404h-18.071v-150.75l199.716,-82.896l199.74,82.893v325.723z" fill="#333333"></path></g></g></g></g></svg>